<svg xmlns="http://www.w3.org/2000/svg" viewBox="0 0 1600 900" role="img" aria-label="Kepi rice paper texture">
  <defs>
    <filter id="paper" x="-10%" y="-10%" width="120%" height="120%">
      <feTurbulence type="fractalNoise" baseFrequency=".018" numOctaves="4" seed="31"/>
      <feColorMatrix type="matrix" values=".45 0 0 0 .54  0 .36 0 0 .44  0 0 .18 0 .25  0 0 0 .18 0"/>
    </filter>
    <radialGradient id="warm" cx="50%" cy="44%" r="74%">
      <stop offset="0" stop-color="#f3dfb3"/>
      <stop offset=".68" stop-color="#ddbd7d"/>
      <stop offset="1" stop-color="#9d6f38"/>
    </radialGradient>
  </defs>
  <rect width="1600" height="900" fill="url(#warm)"/>
  <rect width="1600" height="900" filter="url(#paper)" opacity=".55"/>
  <g fill="none" stroke="#8c6532" stroke-linecap="round" opacity=".14">
    <path d="M128 142c118 34 198-28 314 6 86 25 132 18 202-10"/>
    <path d="M828 116c140 46 218-42 342 8 92 37 174 22 284-16"/>
    <path d="M214 668c172-34 282 28 438-20 98-30 184-18 268 18"/>
    <path d="M1028 728c132-18 220 20 354-14"/>
  </g>
  <path d="M52 52h1496v796H52z" fill="none" stroke="#5e381f" stroke-width="18" opacity=".16"/>
</svg>
