<svg xmlns="http://www.w3.org/2000/svg" viewBox="0 0 1600 900" role="img" aria-label="Kepi storm ending texture">
  <defs>
    <linearGradient id="sky" x1="0" x2="1" y1="0" y2="1">
      <stop offset="0" stop-color="#566a71"/>
      <stop offset="0.48" stop-color="#8da098"/>
      <stop offset="1" stop-color="#d6b978"/>
    </linearGradient>
    <radialGradient id="light" cx="72%" cy="28%" r="58%">
      <stop offset="0" stop-color="#f2cf83" stop-opacity=".48"/>
      <stop offset=".46" stop-color="#d8a95e" stop-opacity=".18"/>
      <stop offset="1" stop-color="#314c5b" stop-opacity="0"/>
    </radialGradient>
    <filter id="soft">
      <feGaussianBlur stdDeviation="9"/>
    </filter>
  </defs>
  <rect width="1600" height="900" fill="url(#sky)"/>
  <rect width="1600" height="900" fill="url(#light)"/>
  <path d="M-40 610c210-86 340-34 492-6 205 38 358-86 568-40 188 41 318 138 620 16v344H-40z" fill="#315d68" opacity=".64"/>
  <path d="M-60 704c180-78 320-26 464 6 178 39 332-70 548-24 226 48 380 116 712-18v252H-60z" fill="#d9c493" opacity=".42"/>
  <path d="M-24 494c170 36 238 8 374-22 132-29 220-22 328 11 130 39 258 31 394-4 173-45 292-25 554 54" fill="none" stroke="#f3dc9f" stroke-width="10" opacity=".34"/>
  <path d="M28 410c224 82 366-78 548-6 156 62 264 38 414-26 186-80 312-12 556 58" fill="none" stroke="#314c5b" stroke-width="8" opacity=".22"/>
  <g fill="#f1d89d" opacity=".58" filter="url(#soft)">
    <path d="M300 212h112l28 20-38 18H280l-26-18z"/>
    <path d="M928 168h170l38 28-58 22H892l-42-24z"/>
    <path d="M1170 310h128l30 21-38 19h-146l-28-18z"/>
  </g>
  <g fill="#f5e5ba" opacity=".76">
    <path d="M512 346l76-20 44 26-68 32z"/>
    <path d="M720 284l58-18 38 24-62 24z"/>
    <path d="M1048 396l82-30 52 30-80 35z"/>
  </g>
  <path d="M0 0h1600v900H0z" fill="none" stroke="#4a2d1e" stroke-width="36" opacity=".24"/>
</svg>
